<mxfile host="app.diagrams.net" modified="2023-11-20T13:01:21.367Z" agent="Mozilla/5.0 (Windows NT 10.0; Win64; x64; rv:120.0) Gecko/20100101 Firefox/120.0" version="22.1.3" etag="7qkkyE_MnL2PppX1jXpj" type="github">
  <diagram name="Page-1" id="pr_XeZmP0Pas2CeDJ5TQ">
    <mxGraphModel>
      <root>
        <mxCell id="0" />
        <mxCell id="1" parent="0" />
      </root>
    </mxGraphModel>
  </diagram>
</mxfile>
